<?xml version="1.0" standalone="no"?>
<!DOCTYPE svg PUBLIC "-//W3C//DTD SVG 20010904//EN"
 "http://www.w3.org/TR/2001/REC-SVG-20010904/DTD/svg10.dtd">
<svg version="1.0" xmlns="http://www.w3.org/2000/svg"
 width="8000.000000pt" height="4500.000000pt" viewBox="0 0 8000.000000 4500.000000"
 preserveAspectRatio="xMidYMid meet">

<g transform="translate(0.000000,4500.000000) scale(0.100000,-0.100000)"
fill="#000000" stroke="none">
<path d="M0 30511 l0 -14488 428 -141 c235 -77 855 -281 1377 -452 884 -290
1818 -597 2580 -847 755 -248 968 -318 1275 -418 179 -59 474 -156 655 -215
182 -60 476 -157 655 -215 877 -288 1016 -336 1060 -365 53 -35 70 -38 70 -10
0 11 5 20 11 20 6 0 9 -9 6 -20 -7 -29 14 -42 44 -26 180 93 494 269 501 280
4 6 8 7 8 3 0 -11 43 13 53 30 5 7 12 11 16 8 5 -2 42 14 82 36 41 23 110 60
154 83 113 60 215 116 250 136 17 10 75 41 130 71 55 29 126 67 158 84 31 17
54 35 50 40 -5 4 -3 5 4 1 7 -4 47 13 90 37 43 24 119 65 168 92 50 26 125 68
169 92 43 23 82 43 85 43 4 0 16 8 27 17 11 10 24 19 30 20 5 1 73 36 149 77
77 42 193 104 257 138 66 35 114 67 111 73 -4 5 -3 7 2 3 8 -7 80 26 205 97
41 23 116 63 165 90 50 26 108 58 130 70 41 23 63 35 305 165 74 40 149 80
165 90 17 9 71 39 120 65 50 27 125 68 169 92 43 23 82 43 85 43 4 0 16 8 27
17 11 10 24 19 30 20 5 1 73 36 149 77 77 42 193 104 257 138 66 35 114 67
111 73 -4 5 -3 7 2 3 8 -8 66 20 246 119 68 38 150 82 182 98 32 17 67 38 77
48 11 9 25 17 32 17 7 0 572 232 1256 517 1142 476 1243 519 1238 538 -5 20
208 94 3311 1161 1824 626 3331 1149 3349 1161 21 13 34 17 36 11 3 -8 1091
82 3624 299 1990 171 3628 314 3639 318 19 6 19 6 1 -9 -10 -8 -16 -18 -13
-23 3 -4 748 -379 1656 -833 907 -453 1647 -828 1645 -832 -3 -4 6 -8 20 -8
14 0 26 -5 26 -11 0 -5 4 -8 9 -5 5 3 42 -1 83 -9 40 -8 271 -53 513 -99 242
-47 940 -182 1550 -300 611 -118 1241 -240 1400 -271 348 -67 2062 -399 2505
-485 338 -66 346 -67 373 -56 12 6 17 4 17 -8 0 -9 8 -16 17 -16 31 0 2227
601 2251 616 12 8 28 11 35 7 7 -4 19 -9 27 -10 8 -1 787 -320 1730 -708 943
-388 1736 -714 1762 -724 36 -14 55 -17 75 -10 55 18 1765 202 1883 203 100 0
485 -15 740 -29 108 -6 243 -12 865 -40 182 -8 431 -19 555 -25 253 -11 415
-18 540 -25 47 -2 144 -7 215 -10 72 -3 274 -12 450 -20 176 -8 428 -19 560
-25 132 -5 274 -12 315 -15 41 -3 113 -6 159 -6 79 -1 85 0 111 27 25 26 91
145 305 549 32 61 70 133 85 160 22 40 295 552 556 1043 24 45 64 119 88 165
136 252 556 1042 586 1099 20 39 42 68 50 68 8 0 47 -51 86 -113 40 -61 404
-636 810 -1277 969 -1531 1617 -2555 1956 -3090 152 -239 460 -726 686 -1082
354 -560 411 -646 425 -635 9 7 757 1171 1664 2587 906 1417 1657 2588 1668
2602 l20 26 1855 -1758 c1073 -1016 1887 -1795 1930 -1847 41 -49 91 -109 111
-133 l37 -45 827 1655 c455 910 829 1657 831 1659 5 6 44 -39 45 -53 1 -6 4 1
8 15 l6 26 1620 -304 c891 -166 1634 -305 1651 -308 26 -4 208 -213 1245
-1421 668 -779 1224 -1428 1236 -1443 27 -32 37 -21 47 48 4 25 17 127 31 226
13 99 74 545 135 990 60 446 115 844 120 885 62 453 239 1749 270 1975 22 160
43 316 46 347 4 32 11 55 15 52 5 -3 4 7 -1 22 -6 15 -9 28 -8 29 2 1 473
-188 1048 -422 575 -233 1245 -505 1490 -605 245 -99 537 -218 650 -263 113
-46 711 -289 1330 -540 619 -251 1478 -600 1910 -775 432 -175 809 -328 838
-339 l52 -21 0 14490 0 14490 -40000 0 -40000 0 0 -14489z m28100 9035 c0 -8
4 -16 8 -18 6 -2 413 -2006 408 -2009 -3 -2 -4141 -416 -4144 -414 -1 1 825
553 1835 1228 1284 856 1846 1226 1866 1226 17 1 27 -4 27 -13z m29990 -11651
c1240 -113 2259 -206 2264 -208 8 -3 -3692 -4125 -3704 -4126 -3 -1 -189 1010
-414 2247 -224 1236 -410 2257 -413 2270 -3 12 -1 22 4 22 5 0 1023 -92 2263
-205z m-20300 -1867 c-56 -1008 -105 -1836 -109 -1840 -5 -6 -2476 -700 -5116
-1438 l-70 -20 105 103 c58 56 211 204 340 327 129 124 296 284 370 355 269
261 397 384 525 506 71 68 197 189 280 269 82 80 211 204 285 275 74 71 196
188 270 260 211 203 376 361 635 610 132 127 301 289 375 360 433 417 614 592
800 770 74 71 196 188 270 260 75 71 196 188 270 259 74 71 191 184 260 250
69 67 184 177 255 245 72 69 179 172 240 230 104 100 110 105 113 79 2 -15
-43 -852 -98 -1860z"/>
<path d="M42477 10500 c-3 -30 -97 -1703 -209 -3718 -176 -3191 -200 -3664
-188 -3672 8 -5 161 -64 340 -130 179 -67 336 -126 350 -132 24 -9 545 -205
620 -232 35 -13 248 -94 304 -115 l29 -12 -17 25 c-20 31 -20 40 -1 32 12 -4
14 0 10 17 -2 12 -279 1811 -615 3997 -336 2186 -612 3980 -614 3985 -2 6 -6
-15 -9 -45z"/>
<path d="M48333 9115 c-9 -10 88 -682 447 -3077 253 -1684 475 -3166 495
-3293 19 -126 71 -473 115 -770 44 -297 98 -657 120 -800 22 -143 69 -458 105
-700 36 -242 67 -444 69 -450 3 -9 159 302 1264 2525 1775 3573 1912 3851
1912 3865 0 8 5 17 10 20 14 9 -4 24 -85 71 -203 118 -779 458 -930 549 -38
23 -149 88 -245 145 -96 57 -258 153 -360 213 -102 60 -221 131 -265 157 -44
26 -147 87 -230 135 -165 97 -550 324 -660 390 -38 23 -149 88 -245 145 -96
57 -256 151 -355 210 -99 59 -245 145 -325 192 -304 179 -548 323 -640 378
-182 108 -184 109 -197 95z"/>
<path d="M38840 7700 c-9 -6 -10 -10 -3 -10 6 0 15 5 18 10 8 12 4 12 -15 0z"/>
<path d="M39079 7333 c-12 -16 -12 -17 2 -6 9 7 20 9 24 5 5 -4 5 -1 1 6 -9
16 -11 15 -27 -5z"/>
<path d="M39190 7216 c0 -2 8 -10 18 -17 15 -13 16 -12 3 4 -13 16 -21 21 -21
13z"/>
<path d="M39215 7111 c-3 -5 -2 -12 3 -15 5 -3 9 1 9 9 0 17 -3 19 -12 6z"/>
<path d="M27030 7060 c-9 -6 -10 -10 -3 -10 6 0 15 5 18 10 8 12 4 12 -15 0z"/>
<path d="M26149 6593 c-1 -5 -1 -12 0 -17 1 -5 -5 -6 -14 -2 -10 3 -14 2 -10
-5 9 -14 28 -6 31 14 1 9 0 17 -2 17 -2 0 -5 -3 -5 -7z"/>
<path d="M39706 6471 c-4 -5 -2 -12 3 -15 5 -4 12 -2 15 3 4 5 2 12 -3 15 -5
4 -12 2 -15 -3z"/>
<path d="M25269 6113 c-1 -5 -1 -12 0 -17 1 -5 -5 -6 -14 -2 -10 3 -14 2 -10
-5 9 -14 28 -6 31 14 1 9 0 17 -2 17 -2 0 -5 -3 -5 -7z"/>
<path d="M40120 5860 c-9 -6 -10 -10 -3 -10 6 0 15 5 18 10 8 12 4 12 -15 0z"/>
<path d="M24389 5633 c-1 -5 -1 -12 0 -17 1 -5 -5 -6 -14 -2 -10 3 -14 2 -10
-5 9 -14 28 -6 31 14 1 9 0 17 -2 17 -2 0 -5 -3 -5 -7z"/>
<path d="M40359 5493 c-12 -16 -12 -17 2 -6 9 7 20 9 24 5 5 -4 5 -1 1 6 -9
16 -11 15 -27 -5z"/>
<path d="M40470 5376 c0 -2 8 -10 18 -17 15 -13 16 -12 3 4 -13 16 -21 21 -21
13z"/>
<path d="M40495 5271 c-3 -5 -2 -12 3 -15 5 -3 9 1 9 9 0 17 -3 19 -12 6z"/>
<path d="M23509 5153 c-1 -5 -1 -12 0 -17 1 -5 -5 -6 -14 -2 -10 3 -14 2 -10
-5 9 -14 28 -6 31 14 1 9 0 17 -2 17 -2 0 -5 -3 -5 -7z"/>
<path d="M22629 4673 c-1 -5 -1 -12 0 -17 1 -5 -5 -6 -14 -2 -10 3 -14 2 -10
-5 9 -14 28 -6 31 14 1 9 0 17 -2 17 -2 0 -5 -3 -5 -7z"/>
<path d="M40986 4631 c-4 -5 -2 -12 3 -15 5 -4 12 -2 15 3 4 5 2 12 -3 15 -5
4 -12 2 -15 -3z"/>
<path d="M22536 4551 c-4 -5 -2 -12 3 -15 5 -4 12 -2 15 3 4 5 2 12 -3 15 -5
4 -12 2 -15 -3z"/>
<path d="M22644 4485 c1 -8 6 -18 11 -22 4 -4 5 -2 1 5 -4 6 -3 12 1 12 5 0
15 -6 22 -12 11 -10 12 -10 7 -1 -4 7 -15 17 -26 23 -14 7 -18 6 -16 -5z"/>
<path d="M23250 4076 c0 -2 8 -10 18 -17 15 -13 16 -12 3 4 -13 16 -21 21 -21
13z"/>
<path d="M41400 4020 c-9 -6 -10 -10 -3 -10 6 0 15 5 18 10 8 12 4 12 -15 0z"/>
<path d="M23509 3958 c-5 -18 -6 -38 -1 -34 7 8 12 36 6 36 -2 0 -4 -1 -5 -2z"/>
<path d="M23721 3737 c2 -1 13 -9 24 -17 19 -14 19 -14 6 3 -7 9 -18 17 -24
17 -6 0 -8 -1 -6 -3z"/>
<path d="M41639 3653 c-12 -16 -12 -17 2 -6 9 7 20 9 24 5 5 -4 5 -1 1 6 -9
16 -11 15 -27 -5z"/>
<path d="M41750 3536 c0 -2 8 -10 18 -17 15 -13 16 -12 3 4 -13 16 -21 21 -21
13z"/>
<path d="M24163 3455 c0 -8 4 -12 9 -9 5 3 6 10 3 15 -9 13 -12 11 -12 -6z"/>
<path d="M41775 3431 c-3 -5 -2 -12 3 -15 5 -3 9 1 9 9 0 17 -3 19 -12 6z"/>
<path d="M24289 3363 c-13 -16 -12 -17 4 -4 16 13 21 21 13 21 -2 0 -10 -8
-17 -17z"/>
<path d="M24884 2965 c1 -8 6 -18 11 -22 4 -4 5 -2 1 5 -4 6 -3 12 1 12 5 0
15 -6 22 -12 11 -10 12 -10 7 -1 -4 7 -15 17 -26 23 -14 7 -18 6 -16 -5z"/>
<path d="M25490 2556 c0 -2 8 -10 18 -17 15 -13 16 -12 3 4 -13 16 -21 21 -21
13z"/>
<path d="M25749 2438 c-5 -18 -6 -38 -1 -34 7 8 12 36 6 36 -2 0 -4 -1 -5 -2z"/>
<path d="M25961 2217 c2 -1 13 -9 24 -17 19 -14 19 -14 6 3 -7 9 -18 17 -24
17 -6 0 -8 -1 -6 -3z"/>
<path d="M26403 1935 c0 -8 4 -12 9 -9 5 3 6 10 3 15 -9 13 -12 11 -12 -6z"/>
<path d="M26529 1843 c-13 -16 -12 -17 4 -4 16 13 21 21 13 21 -2 0 -10 -8
-17 -17z"/>
<path d="M27124 1445 c1 -8 6 -18 11 -22 4 -4 5 -2 1 5 -4 6 -3 12 1 12 5 0
15 -6 22 -12 11 -10 12 -10 7 -1 -4 7 -15 17 -26 23 -14 7 -18 6 -16 -5z"/>
<path d="M27730 1036 c0 -2 8 -10 18 -17 15 -13 16 -12 3 4 -13 16 -21 21 -21
13z"/>
<path d="M27989 918 c-5 -18 -6 -38 -1 -34 7 8 12 36 6 36 -2 0 -4 -1 -5 -2z"/>
<path d="M28201 697 c2 -1 13 -9 24 -17 19 -14 19 -14 6 3 -7 9 -18 17 -24 17
-6 0 -8 -1 -6 -3z"/>
</g>
</svg>
